HIERARCHY
ROOT Hips
{
	OFFSET -3.958830 18.904000 13.208200
	CHANNELS 6 Xposition Yposition Zposition Zrotation Yrotation Xrotation 
	JOINT LHipJoint
	{
		OFFSET 0.000000 0.000000 0.000000
		CHANNELS 3 Zrotation Yrotation Xrotation
		JOINT LeftUpLeg
		{
			OFFSET 1.800000 -1.400000 0.085000
			CHANNELS 3 Zrotation Yrotation Xrotation
			JOINT LeftLeg
			{
				OFFSET 2.215000 -6.000000 0.000000
				CHANNELS 3 Zrotation Yrotation Xrotation
				JOINT LeftFoot
				{
					OFFSET 2.500000 -6.900000 0.000000
					CHANNELS 3 Zrotation Yrotation Xrotation
					JOINT LeftToeBase
					{
						OFFSET 0.200000 -0.500000 1.950000
						CHANNELS 3 Zrotation Yrotation Xrotation
						End Site
						{
							OFFSET 0.000000 0.000000 0.000000
						}
					}
				}
			}
		}
	}
	JOINT RHipJoint
	{
		OFFSET 0.000000 0.000000 0.000000
		CHANNELS 3 Zrotation Yrotation Xrotation
		JOINT RightUpLeg
		{
			OFFSET -1.800000 -1.400000 0.085000
			CHANNELS 3 Zrotation Yrotation Xrotation
			JOINT RightLeg
			{
				OFFSET -2.215000 -6.000000 0.000000
				CHANNELS 3 Zrotation Yrotation Xrotation
				JOINT RightFoot
				{
					OFFSET -2.500000 -6.900000 0.000000
					CHANNELS 3 Zrotation Yrotation Xrotation
					JOINT RightToeBase
					{
						OFFSET -0.200000 -0.500000 1.950000
						CHANNELS 3 Zrotation Yrotation Xrotation
						End Site
						{
							OFFSET 0.000000 0.000000 0.000000
						}
					}
				}
			}
		}
	}
	JOINT LowerBack
	{
		OFFSET 0.000000 0.000000 0.000000
		CHANNELS 3 Zrotation Yrotation Xrotation
		JOINT Spine
		{
			OFFSET -0.087000 1.940000 -0.288900
			CHANNELS 3 Zrotation Yrotation Xrotation
			JOINT Spine1
			{
				OFFSET 0.000000 1.950000 0.060000
				CHANNELS 3 Zrotation Yrotation Xrotation
				JOINT Neck
				{
					OFFSET 0.000000 0.000000 0.000000
					CHANNELS 3 Zrotation Yrotation Xrotation
					JOINT Neck1
					{
						OFFSET 0.000000 1.600000 0.340000
						CHANNELS 3 Zrotation Yrotation Xrotation
						JOINT Head
						{
							OFFSET 0.000000 1.667000 -0.240000
							CHANNELS 3 Zrotation Yrotation Xrotation
							End Site
							{
								OFFSET 0.000000 0.000000 0.000000
							}
						}
					}
				}
				JOINT LeftShoulder
				{
					OFFSET 0.000000 0.000000 0.000000
					CHANNELS 3 Zrotation Yrotation Xrotation
					JOINT LeftArm
					{
						OFFSET 2.700000 1.550000 -0.730000
						CHANNELS 3 Zrotation Yrotation Xrotation
						JOINT LeftForeArm
						{
							OFFSET 5.450000 0.000000 0.000000
							CHANNELS 3 Zrotation Yrotation Xrotation
							JOINT LeftHand
							{
								OFFSET 3.450000 0.000000 0.000000
								CHANNELS 3 Zrotation Yrotation Xrotation
								JOINT LeftHandIndex1
								{
									OFFSET 0.750000 0.000000 0.000000
									CHANNELS 3 Zrotation Yrotation Xrotation
									End Site
									{
										OFFSET 0.000000 0.000000 0.000000
									}
								}
							}
						}
					}
				}
				JOINT RightShoulder
				{
					OFFSET 0.000000 0.000000 0.000000
					CHANNELS 3 Zrotation Yrotation Xrotation
					JOINT RightArm
					{
						OFFSET -2.700000 1.550000 -0.730000
						CHANNELS 3 Zrotation Yrotation Xrotation
						JOINT RightForeArm
						{
							OFFSET -5.450000 0.000000 0.000000
							CHANNELS 3 Zrotation Yrotation Xrotation
							JOINT RightHand
							{
								OFFSET -3.450000 0.000000 0.000000
								CHANNELS 3 Zrotation Yrotation Xrotation
								JOINT RightHandIndex1
								{
									OFFSET -0.750000 0.000000 0.000000
									CHANNELS 3 Zrotation Yrotation Xrotation
									End Site
									{
										OFFSET 0.000000 0.000000 0.000000
									}
								}
							}
						}
					}
				}
			}
		}
	}
}
MOTION
Frames: 13
Frame Time: 0.016667
0.185620 16.637800 -7.541710 4.252135 21.095532 1.434681 -14.845407 12.534779 2.926139 7.799829 -2.720992 -29.983578 -1.869538 5.814486 23.974117 -0.700754 3.757652 2.784640 0.644590 0.433720 0.839730 18.607591 -10.006060 3.996252 -27.679263 10.540152 -25.561576 27.117292 -16.102052 35.917244 -1.226433 -7.722687 1.155358 0.212100 -0.712590 0.124100 -4.970961 -0.959990 -8.179605 23.952124 -12.678947 37.806167 -21.457318 -7.336306 -7.080265 7.459967 -10.912328 -7.931397 -27.466597 29.006925 50.440028 -27.623430 9.016330 -26.503070 -40.071342 -3.430646 -1.875974 -38.339572 15.353088 -9.181725 -27.792112 12.261684 -7.693185 -2.883103 2.446554 0.797140 -0.507160 0.564760 -0.192610 23.178387 8.622851 3.084242 67.549085 15.529501 4.061179 170.594351 54.337686 152.925945 2.250288 -1.565264 0.043270 0.061800 -0.093200 -0.353480 
0.179690 16.626200 -7.549210 4.438919 21.043866 1.006803 -14.875896 12.636521 2.935226 7.599955 -2.671043 -30.049529 -1.294712 5.811233 24.758691 -0.704830 3.816432 2.751320 0.664840 0.458200 0.862180 18.563833 -9.992387 3.983568 -27.550124 10.655729 -25.440323 26.655858 -16.110547 36.666480 -1.249579 -7.766082 1.135563 0.226090 -0.738970 0.126250 -4.873266 -1.142320 -8.196265 22.491614 -12.378431 39.098916 -20.516342 -7.135959 -6.670577 7.451273 -10.504394 -8.321306 -26.756298 29.073188 51.683273 -28.058950 9.117760 -27.296160 -40.468550 -4.616945 -1.483461 -38.040502 14.919248 -9.007890 -27.658300 12.753081 -7.824692 -2.875749 2.435647 0.814440 -0.520350 0.587470 -0.194960 23.805727 9.769145 3.148112 67.075830 16.740918 4.226857 172.530292 54.700702 156.531839 2.243649 -1.550256 0.047310 0.061210 -0.103270 -0.363040 
0.189770 16.603990 -7.552930 4.958394 20.892592 0.880837 -14.888265 12.696543 2.930706 6.951915 -2.666661 -29.895621 -0.778773 5.729020 25.007159 -0.713738 3.781504 2.763887 0.706930 0.504870 0.896560 18.540613 -10.029040 3.981375 -27.805540 10.786273 -25.668645 25.655714 -16.072005 37.965533 -1.263736 -7.852865 1.098893 0.258110 -0.754530 0.132360 -4.830977 -1.161521 -8.190667 21.027656 -11.640837 39.799202 -19.747110 -6.668233 -4.885140 7.322505 -10.499133 -8.777911 -26.887545 29.079671 51.912361 -27.954680 8.629510 -27.808660 -40.849783 -6.156321 -0.944441 -37.141102 13.642755 -8.424199 -26.927041 12.358496 -7.525101 -2.876796 2.450881 0.809110 -0.524110 0.598490 -0.188570 24.639070 11.731550 3.396846 66.405134 19.708385 5.999712 177.528805 55.066059 166.293079 2.215987 -1.564971 0.059650 0.061100 -0.126260 -0.364500 
0.215870 16.594510 -7.562860 4.911344 21.132756 0.941488 -14.883885 12.688892 2.938479 6.393741 -2.758788 -30.122174 -0.080031 5.439617 24.811199 -0.746680 3.664173 2.811632 0.724280 0.529310 0.898720 18.544159 -10.081348 3.958518 -27.631929 10.795044 -25.818948 24.831962 -15.969142 38.685088 -1.265597 -7.859682 1.097089 0.280860 -0.746190 0.125670 -4.857214 -1.080770 -8.170494 20.817184 -11.472476 40.039149 -19.537965 -6.361369 -3.308969 7.191042 -10.405472 -9.462795 -27.365087 29.233916 52.063788 -26.780480 8.314430 -28.054410 -40.890387 -7.891566 -0.129314 -37.013529 12.731845 -7.725064 -24.750042 11.793993 -6.813709 -2.911912 2.438997 0.819290 -0.527150 0.600920 -0.180120 25.122601 13.579256 3.817412 65.617394 21.292303 5.770693 -179.726498 55.855956 170.648490 2.209204 -1.541552 0.050840 0.083580 -0.129010 -0.363730 
0.232500 16.601510 -7.576670 5.081051 21.571001 1.303790 -14.923464 12.740680 3.016598 5.702927 -2.986997 -30.687896 0.518924 5.222739 24.810754 -0.761109 3.587951 2.844929 0.724330 0.527280 0.895980 18.499910 -10.072049 3.910124 -27.168461 10.628364 -26.092929 23.631941 -15.657259 39.339642 -1.237306 -7.788114 1.125654 0.286600 -0.731150 0.112070 -4.754845 -1.266595 -8.172915 19.436799 -10.996173 40.534213 -18.072711 -6.007271 -1.957430 6.879156 -10.352986 -10.395888 -28.019977 29.346233 51.767913 -25.299500 8.569250 -27.703140 -40.430322 -9.691312 1.071181 -37.647865 12.431580 -7.449534 -22.933104 10.255247 -6.031740 -2.952205 2.481523 0.824820 -0.527900 0.589210 -0.178930 25.642280 15.849353 4.342186 63.907885 22.791428 4.883315 -176.721583 57.021032 175.043652 2.214947 -1.519589 0.035740 0.096690 -0.126900 -0.367400 
0.241190 16.620480 -7.592250 5.170626 21.887112 1.807304 -14.977264 12.818800 3.116644 5.008420 -3.218612 -31.305832 1.119701 4.919243 24.273351 -0.767376 3.439259 2.922420 0.705360 0.505180 0.881140 18.437285 -10.053100 3.856163 -26.392934 10.421151 -26.581686 22.060730 -15.111348 39.924983 -1.189778 -7.643693 1.195640 0.275120 -0.700950 0.098190 -4.603035 -1.535166 -8.184464 17.528873 -10.356810 41.120980 -16.271088 -5.614260 -0.307304 6.586997 -10.323602 -11.428561 -28.047617 28.856598 50.865633 -24.602190 9.204000 -27.434010 -38.994070 -11.599376 2.506778 -39.049474 12.193486 -7.628048 -21.650114 8.084914 -5.306453 -2.999253 2.538547 0.825570 -0.516540 0.572370 -0.167540 25.208044 18.456532 5.079337 62.461003 24.543646 3.552639 -173.548449 58.636826 178.884589 2.235281 -1.495232 0.014050 0.113170 -0.127490 -0.367320 
0.251900 16.635210 -7.608250 4.830470 22.183882 2.869532 -15.033072 12.809783 3.245216 4.801612 -3.404034 -32.641200 1.320551 4.796956 23.819862 -0.746545 3.345203 2.974630 0.685550 0.491150 0.849170 18.394178 -9.963316 3.844320 -25.617885 10.303086 -27.551408 21.086176 -14.664729 40.077762 -1.141728 -7.501436 1.271702 0.262940 -0.658900 0.092710 -4.456330 -1.773838 -8.217666 16.214165 -9.656624 40.841199 -14.234926 -5.103504 1.305437 6.167696 -10.670523 -12.175536 -28.435333 28.352299 48.790503 -23.579030 9.961040 -26.754230 -36.269533 -12.516256 3.665349 -41.371593 11.678487 -8.140198 -21.325253 6.122283 -4.829023 -3.069900 2.624124 0.802140 -0.492400 0.546690 -0.147260 23.705252 20.430786 5.744827 61.507996 26.511930 2.660597 -169.368306 60.355888 -175.815059 2.258351 -1.503346 0.006640 0.115990 -0.131470 -0.353850 
0.257830 16.655430 -7.628090 4.382243 22.096000 3.948274 -15.084665 12.766208 3.369175 4.651282 -3.526091 -34.236202 1.731950 4.682485 23.560026 -0.703641 3.252458 3.019011 0.678580 0.496920 0.824350 18.362396 -9.849396 3.863797 -25.126643 10.277135 -28.505032 20.776843 -14.218206 39.563722 -1.097316 -7.328425 1.352201 0.251840 -0.634160 0.092740 -4.314995 -1.960485 -8.264816 14.840424 -8.753665 40.947412 -12.083596 -4.434547 2.665461 5.559293 -11.161065 -12.768250 -28.665943 27.686569 45.933796 -22.813220 10.682090 -26.786810 -32.829057 -13.059344 4.720421 -43.441884 11.447161 -9.351819 -23.342345 3.266351 -4.724786 -3.101568 2.735935 0.771600 -0.478350 0.531250 -0.124930 21.820652 22.237236 6.336709 60.797035 28.570685 1.895060 -164.099467 61.738851 -169.261686 2.302568 -1.527344 0.018140 0.101800 -0.148720 -0.334580 
0.242320 16.678030 -7.655080 3.508618 21.474943 4.480149 -15.146750 12.770969 3.477337 5.399522 -3.205621 -35.843906 1.523829 4.898819 23.442441 -0.642612 3.288524 3.004782 0.651660 0.486810 0.785470 18.312190 -9.712798 3.889385 -24.201578 10.679359 -29.217174 20.578525 -13.648805 39.058080 -1.054014 -7.128673 1.447212 0.226320 -0.610250 0.095830 -4.120896 -2.199019 -8.330382 13.219647 -7.287644 42.015500 -9.508535 -3.141430 3.956884 4.950940 -11.452227 -13.511894 -28.156107 26.478006 43.690076 -22.251560 11.223170 -27.150430 -29.309158 -14.054428 5.910272 -44.849691 11.621806 -10.984042 -27.135569 0.231917 -4.891710 -3.130657 2.827199 0.742130 -0.464790 0.518690 -0.113180 19.824652 24.718473 7.050013 58.951165 30.526162 0.715824 -156.394775 61.758332 -159.343887 2.364770 -1.521670 0.032070 0.086330 -0.151630 -0.313460 
0.225140 16.682840 -7.684450 2.175122 20.882893 5.057380 -15.220950 12.700845 3.594701 6.650291 -2.715765 -37.964405 1.235663 5.288131 23.731239 -0.567616 3.466836 2.947670 0.598040 0.435240 0.723810 18.275958 -9.453496 3.994811 -23.691187 11.349069 -30.171171 21.912687 -13.590863 38.166024 -1.036151 -7.072307 1.505269 0.182760 -0.555060 0.099610 -3.911753 -2.465178 -8.456344 11.850318 -5.771197 42.692262 -6.646595 -1.811199 4.883490 4.331592 -11.702448 -14.115309 -27.054302 25.028747 41.541207 -21.114950 11.997480 -26.440880 -25.750094 -14.407222 7.056954 -46.473199 12.986193 -13.326697 -31.953207 -3.966445 -4.838229 -3.169542 2.908994 0.710170 -0.434630 0.482280 -0.097690 17.759471 26.576727 7.522824 56.631204 32.085454 -0.537273 -147.936180 61.911213 -148.601615 2.429888 -1.483805 0.027990 0.071960 -0.140310 -0.292960 
0.205530 16.684090 -7.716130 0.611781 19.962551 5.233448 -15.303830 12.666584 3.666294 7.881584 -1.973517 -39.831045 1.588664 5.601789 24.170628 -0.523432 3.681235 2.877036 0.548730 0.380410 0.688190 18.232664 -9.180919 4.102869 -23.310758 12.131689 -30.717580 23.882863 -13.562156 36.823949 -1.032857 -7.024961 1.554760 0.146210 -0.509190 0.105980 -3.675591 -2.770142 -8.579432 10.436691 -3.911963 43.664715 -3.685953 -0.222564 5.913174 3.696828 -11.607692 -14.355054 -25.259795 23.484412 39.986662 -20.890210 12.716160 -26.608890 -22.620909 -14.623827 7.813131 -46.270390 13.575044 -14.870260 -38.716813 -6.093690 -5.214636 -3.218572 2.966701 0.698620 -0.401910 0.453990 -0.094540 16.046715 27.871837 7.632514 53.660139 33.711803 -1.679009 -137.560599 61.685723 -135.015621 2.507084 -1.323835 0.009600 0.069190 -0.124230 -0.292240 
0.175580 16.674910 -7.749390 -0.860932 19.000122 5.310754 -15.403451 12.604502 3.752748 9.191819 -1.166909 -41.777341 1.877916 6.042049 24.974916 -0.476326 3.980106 2.762195 0.516980 0.344570 0.667480 18.187188 -8.852014 4.210525 -23.299048 12.896402 -31.134236 26.548430 -13.547856 34.964871 -1.041454 -6.989688 1.590266 0.122150 -0.484220 0.112910 -3.405473 -3.129342 -8.718970 8.686128 -1.776699 44.615813 -0.491144 1.450165 7.094547 2.959939 -11.442319 -14.726957 -23.789492 22.184930 38.531384 -20.508800 13.323760 -26.854440 -19.288361 -15.156870 8.689882 -45.302031 14.007407 -16.004601 -47.022560 -7.876896 -5.560533 -3.247655 3.049654 0.689510 -0.378100 0.432480 -0.097550 14.356243 29.278722 7.767868 49.762540 34.861625 -3.449462 -126.360264 61.023026 -119.769220 2.605261 -0.929543 -0.000970 0.053530 -0.115660 -0.297900 
0.141590 16.662630 -7.777380 -2.384891 17.738628 4.821912 -15.503776 12.546795 3.824822 10.822665 -0.026914 -43.397949 2.098153 6.676850 26.248814 -0.446755 4.422480 2.573851 0.483380 0.306900 0.674990 18.137875 -8.578191 4.249202 -23.161240 13.593432 -30.581824 29.327136 -13.300212 32.585099 -1.050935 -6.903954 1.622562 0.101250 -0.490830 0.125560 -3.134940 -3.405332 -8.837821 7.095338 0.741963 45.734036 2.198885 3.456616 9.515537 2.624777 -10.870547 -15.247784 -21.411755 20.709206 37.698393 -21.753160 13.930040 -28.304480 -14.591487 -16.219731 9.651048 -43.545902 13.495657 -16.604852 -56.482479 -10.260162 -5.349395 -3.262702 3.117660 0.698080 -0.359860 0.429640 -0.130020 10.460581 31.030026 8.062582 46.332423 36.539236 -7.428556 -116.192880 58.479503 -102.551306 2.604835 -0.302969 -0.014420 0.034850 -0.094940 -0.326520 
